<?xml version="1.0" encoding="UTF-8"?>
<svg width="24px" height="24px" viewBox="0 0 24 24" version="1.1" xmlns="http://www.w3.org/2000/svg" xmlns:xlink="http://www.w3.org/1999/xlink">
    <!-- Generator: Sketch 61 (89581) - https://sketch.com -->
    <title>堆积柱状图1</title>
    <desc>Created with Sketch.</desc>
    <g id="页面1" stroke="none" stroke-width="1" fill="none" fill-rule="evenodd">
        <g id="画板" transform="translate(-371.000000, -70.000000)">
            <g id="编组-7" transform="translate(371.000000, 63.000000)">
                <g id="堆积柱状图1" transform="translate(0.000000, 7.000000)">
                    <g id="编组">
                        <polygon id="路径" points="0.00237660233 0.00237660233 23.7683519 0.00237660233 23.7683519 23.7683519 0.00237660233 23.7683519"></polygon>
                        <path d="M0.0261426976,12.7029043 L4.77934736,12.7029043 L4.77934736,20.6249041 L0.0261426976,20.6249041 L0.0261426976,12.7029043 Z M0.00396110781,22.9785071 L23.7699364,22.9785071 L23.7699364,23.7707071 L0.00396110781,23.7707071 L0.00396110781,22.9785071 Z M6.3375942,10.1694319 L11.0907989,10.1694319 L11.0907989,20.6019048 L6.3375942,20.6019048 L6.3375942,10.1694319 Z M12.674393,4.76109493 L17.4275977,4.76109493 L17.4275977,20.6050705 L12.674393,20.6050705 L12.674393,4.76109493 Z M19.0104004,15.0580902 L23.763605,15.0580902 L23.763605,20.6034876 L19.0104004,20.6034876 L19.0104004,15.0580902 Z" id="形状" fill="#3399FF" fill-rule="nonzero"></path>
                        <path d="M0.0221815658,7.95684647 L4.77538622,7.95684647 L4.77538622,12.7100511 L0.0221815658,12.7100511 L0.0221815658,7.95684647 Z M6.34710898,1.56855706 L11.1003136,1.56855706 L11.1003136,11.8671352 L6.34710898,11.8671352 L6.34710898,1.56855706 Z M12.6799507,0.0118857696 L17.4331553,0.0118857696 L17.4331553,4.76509043 L12.6799507,4.76509043 L12.6799507,0.0118857696 Z M19.0104181,10.3136296 L23.7636227,10.3136296 L23.7636227,15.0668342 L19.0104181,15.0668342 L19.0104181,10.3136296 Z" id="形状" fill="#32F4FF" fill-rule="nonzero"></path>
                    </g>
                </g>
            </g>
        </g>
    </g>
</svg>