<?xml version="1.0" encoding="UTF-8"?>
<svg width="28px" height="24px" viewBox="0 0 28 24" version="1.1" xmlns="http://www.w3.org/2000/svg" xmlns:xlink="http://www.w3.org/1999/xlink">
    <!-- Generator: Sketch 61 (89581) - https://sketch.com -->
    <title>中国地图</title>
    <desc>Created with Sketch.</desc>
    <g id="页面1" stroke="none" stroke-width="1" fill="none" fill-rule="evenodd">
        <g id="画板" transform="translate(-433.000000, -27.000000)" fill-rule="nonzero">
            <g id="编组-7" transform="translate(359.000000, 19.000000)">
                <g id="中国地图" transform="translate(74.000000, 8.000000)">
                    <path d="M23.8829794,20.6318281 C23.7944293,20.6202781 23.8695044,20.4932279 23.7520793,20.4489529 L23.7520793,20.3989028 L23.7270542,20.3719528 C23.6847042,20.3430777 23.6308041,20.3565528 23.5749791,20.3296027 C23.5749791,20.2872527 23.542254,20.2603026 23.528779,20.2025526 C23.4748789,20.2025526 23.486429,20.1390275 23.4614039,20.0966775 L23.3516788,19.9850273 C23.3651538,19.8926272 23.4325289,19.7790521 23.4190539,19.673177 C23.4055789,19.6308269 23.4055789,19.5750019 23.3651538,19.5461268 L23.3651538,19.5461268 C23.3870965,19.3611684 23.447417,19.1828278 23.542254,19.0225262 C23.542254,18.9667012 23.528779,18.876226 23.5769041,18.806926 L23.6596792,18.7626509 C23.6866292,18.7337759 23.6866292,18.6548508 23.6981792,18.5874757 C23.7270542,18.5162506 23.8444794,18.5027756 23.8695044,18.3949755 C23.9253295,18.3815005 23.9792295,18.3680255 24.0215796,18.3102754 C24.0677796,18.3102754 24.1370797,18.2679253 24.1909798,18.2679253 C24.2314048,18.3102754 24.2448798,18.3680255 24.3353549,18.3815005 C24.4277551,18.7337759 24.3353549,19.1649764 24.3199549,19.5596018 C24.2179298,19.734777 24.2853049,19.9831023 24.1370797,20.1525025 C24.0947297,20.2449026 24.1216797,20.3565528 24.1082047,20.4624279 C24.0947297,20.533653 24.0812546,20.589478 24.0061796,20.6202781 C23.9657545,20.6048781 23.9368795,20.6472281 23.8829794,20.6318281 L23.8829794,20.6318281 Z M17.4342219,23.4500314 C17.4091969,23.4211563 17.3418218,23.4057563 17.2744467,23.3788063 L17.2455717,23.3364562 C17.1974466,23.3229812 17.1300716,23.3364562 17.0761715,23.2941062 L17.0338215,23.2498311 C17.0203464,23.2017061 17.0338215,23.145881 16.9933964,23.0900559 L16.9587464,23.0611809 C16.9587464,22.9745558 16.9183213,22.8994807 16.9317963,22.7993806 C16.9452713,22.7570306 17.0203464,22.7300805 17.0068714,22.6511554 C17.1281466,22.5510553 17.2571217,22.4336302 17.4226719,22.3335301 C17.524697,22.3335301 17.5805221,22.30658 17.6748472,22.262305 C17.7364473,22.262305 17.7364473,22.30658 17.8038223,22.320055 L17.8865974,22.30658 L17.9270225,22.2334299 L17.9000725,22.1987799 C17.8596474,22.1853049 17.7922723,22.1718299 17.7364473,22.1429548 C17.7037222,22.1006048 17.6478972,22.0717298 17.6209471,22.0159047 C17.6209471,21.9235046 17.5516471,21.8676795 17.540097,21.7560294 L17.497747,21.7117543 C17.484272,21.6617043 17.484272,21.5924042 17.470797,21.5385041 L17.4515469,21.5077041 C17.3822469,21.4942291 17.3283468,21.4942291 17.2455717,21.4788291 C17.2128467,21.444179 17.1570216,21.430704 17.1300716,21.3729539 L17.1300716,21.3729539 C17.0345927,21.3440717 16.935295,21.3297936 16.8355465,21.3306039 C16.7412214,21.3306039 16.7681715,21.415304 16.6815464,21.444179 C16.5968463,21.4653541 16.5275462,21.4653541 16.4274461,21.4653541 C16.3196459,21.428779 16.2503459,21.388354 16.1329207,21.3306039 C16.0809457,21.3306039 15.9904706,21.3440789 15.9211705,21.3017289 C15.8672704,21.2170288 15.7729453,21.1535037 15.6978702,21.0553286 C15.6709202,21.0399286 15.6709202,20.9841035 15.6439702,20.9205784 C15.6304951,20.8224033 15.6824702,20.7088282 15.6574452,20.589478 L15.6150951,20.562528 C15.5765951,20.562528 15.499595,20.576003 15.4456949,20.576003 L15.4456949,20.576003 C15.2845518,20.5189499 15.1297299,20.4454097 14.9836944,20.3565528 C14.9682944,20.4277778 14.8604942,20.4624279 14.8316192,20.549053 C14.7931191,20.602953 14.689169,20.6318281 14.646819,20.7223032 C14.5775189,20.7800533 14.4504687,20.7511782 14.3542186,20.7511782 C14.3118686,20.7665782 14.2983936,20.8089283 14.2233185,20.8224033 C14.0269683,20.7511782 13.807518,20.8224033 13.5957678,20.7377032 C13.5495677,20.7377032 13.4956676,20.7531032 13.4667926,20.7819783 L13.4263676,20.8647534 C13.3705425,20.8647534 13.2819924,20.8647534 13.2146173,20.8512783 C13.1607172,20.8647534 13.0914172,20.8512783 13.0432921,20.9090284 C13.0163421,21.1111536 13.1318422,21.3575539 13.0028671,21.5500541 C12.935492,21.5346541 12.922017,21.6039542 12.8392419,21.6193542 C12.7911168,21.6193542 12.7641668,21.6039542 12.7102667,21.5924042 C12.6409666,21.5500541 12.6679167,21.4653541 12.5658916,21.444179 C12.5524165,21.3729539 12.5273915,21.3171289 12.4985165,21.2324288 L12.4696414,21.2035537 C12.3868663,21.2035537 12.4157414,21.3017289 12.3271913,21.3306039 C12.2732912,21.3306039 12.1905161,21.3460039 12.121216,21.3017289 L12.1212161,21.3017289 C12.0878458,21.2578527 12.0490348,21.2183949 12.0057162,21.1843041 C11.9787662,21.168904 11.9787662,21.0842039 11.9383411,21.0572539 C11.9113911,21.0418539 11.8709661,21.0264539 11.8574911,20.9571538 L11.857491,20.9571538 C11.8203223,20.92718 11.7743237,20.9102689 11.7265909,20.9090287 C11.6977159,20.8782287 11.6592158,20.8647537 11.6187908,20.8243286 C11.5976157,20.7819786 11.5571907,20.7665786 11.5417907,20.6895785 C11.5417907,20.6048784 11.5571907,20.5355783 11.5571907,20.4297032 C11.6303408,20.3989031 11.5706657,20.3296031 11.6187908,20.260303 C11.5841407,20.2160279 11.5283157,20.2025529 11.4609406,20.1659779 C11.4320656,20.0966778 11.3646905,20.0697278 11.3300404,19.9696276 C11.3300404,19.8772275 11.3165654,19.8060024 11.3165654,19.7097523 L11.2780654,19.6173522 C11.1529402,19.5461271 10.970065,19.6327522 10.8122148,19.5884772 L10.7563898,19.5461271 L10.7563897,19.5461268 C10.721447,19.3602446 10.7130215,19.1703483 10.7313647,18.9821011 C10.7429147,18.905101 10.8391648,18.916651 10.8661149,18.8338759 L10.8661149,18.7511008 C10.9277149,18.6798758 10.981615,18.5470506 11.1048151,18.5047006 C11.1529402,18.4469505 11.2087653,18.3699504 11.2896153,18.3276003 C11.3300404,18.3006503 11.3300404,18.2294252 11.3300404,18.1505001 L11.3300404,18.1505001 C11.3710432,18.1008237 11.4012056,18.043122 11.4185905,17.9810999 C11.4070405,17.8906248 11.4320655,17.8193998 11.4455405,17.7212246 C11.4878906,17.5729995 11.4455405,17.5171744 11.4455405,17.4324743 L11.3916405,17.3554742 L11.3030904,17.3285242 L11.3030906,17.3285247 C11.2311578,17.1751403 11.1650195,17.0191047 11.1048154,16.8607492 C11.0643903,16.8472742 11.0355153,16.8607492 10.9835402,16.8472742 C10.9546652,16.8896242 10.8680401,16.9820243 10.8391651,17.0513244 C10.75639,17.1225495 10.6139398,17.0782744 10.5042147,17.0936745 C10.3463645,17.0359244 10.2539644,16.9030992 10.1230642,16.8183991 L9.95751315,16.8183991 L9.85548803,16.8896242 C9.79773797,16.8896242 9.77271294,16.9377493 9.69186284,16.9512243 L9.64373779,16.9512243 L9.56096269,16.9820243 C9.50706263,17.0224494 9.43968755,17.0782744 9.34921244,17.1225495 C9.28183737,17.2284246 9.12398718,17.2130246 8.98923703,17.2688497 L8.96228699,17.3111997 C8.91416194,17.3265997 8.90068692,17.3689498 8.83138684,17.3824248 L8.75053675,17.3824248 C8.7081867,17.3978248 8.69471168,17.4478749 8.6196366,17.4594249 L8.61963663,17.4594249 C8.45301866,17.4969817 8.27966018,17.4923502 8.11528604,17.4459499 L8.01903593,17.3400748 C7.9920859,17.2688497 8.01903593,17.2130246 8.00556091,17.1206245 L8.00556091,17.1206245 C7.93867972,17.0411192 7.85777217,16.9745665 7.76686063,16.9242743 L7.76686063,16.9242743 C7.73649251,16.8597536 7.685766,16.8069983 7.62248546,16.7741241 L7.58398541,16.691349 L7.50121032,16.6412989 L7.45886027,16.5585238 C7.38571018,16.5142488 7.26251004,16.5007738 7.16048492,16.4738237 L7.07770982,16.3948986 L6.82745953,16.3948986 C6.76970946,16.4584237 6.68115936,16.5007738 6.64073431,16.5681489 C6.64073431,16.6412989 6.59838427,16.691349 6.57143423,16.7760491 C6.55795922,16.8029991 6.50405916,16.8029991 6.44245908,16.8337992 C6.40203404,16.8337992 6.33273396,16.8029991 6.27883389,16.7895241 C6.17680877,16.677874 6.29230891,16.4584237 6.17680877,16.3236736 C6.1094337,16.3390736 6.05360863,16.3929736 5.96505853,16.3794986 C5.91115847,16.3660236 5.89768345,16.2813235 5.83030837,16.2543735 L5.61855813,16.2543735 L5.48765797,16.1831484 C5.36445783,16.1542734 5.20853265,16.0753483 5.07185749,16.0483982 C5.01603242,16.0483982 4.9948574,16.0041232 4.94288234,15.9771732 C4.86010724,15.9771732 4.74460711,15.9771732 4.648357,15.9348231 C4.62140697,15.8847731 4.59445693,15.842423 4.5675069,15.7577229 C4.49050681,15.7423229 4.43660675,15.6999728 4.35575666,15.6730228 C4.32688162,15.6364478 4.31533161,15.6248978 4.28838158,15.5671477 C4.28838158,15.5247976 4.28838158,15.4978476 4.26913156,15.4400975 C4.21330649,15.4131475 4.14593141,15.3996725 4.07663133,15.3630974 L4.03043128,15.2803224 L3.94765618,15.2341223 C3.90915614,15.1956223 3.92070615,15.0897471 3.90915614,15.016597 L3.83793105,14.947297 L3.74938095,14.8895469 C3.69548089,14.8548969 3.60115578,14.8548969 3.5376307,14.7990718 L3.53763074,14.7990719 C3.3781058,14.4901902 3.1604476,14.2150141 2.89660499,13.9886459 C2.85810495,13.9886459 2.82730491,13.9886459 2.76762984,14.0021209 C2.71180478,14.044471 2.68677975,14.1137711 2.60400465,14.1368711 C2.57705462,14.100296 2.50197953,14.100296 2.44615447,14.059871 L2.44615445,14.059871 C2.37881998,13.9277996 2.29956583,13.8021526 2.20937918,13.6844955 C2.16702913,13.6286705 2.15162911,13.5227953 2.09772905,13.4650453 L2.09772882,13.465045 C2.00685879,13.3707151 1.92320662,13.2696889 1.84747913,13.1628197 L1.75700403,13.1474197 C1.71850398,13.0992946 1.68962895,13.0145945 1.60877886,12.9857195 C1.54717878,12.7239192 1.60877886,12.4775189 1.57412882,12.2022436 C1.60877886,12.1598935 1.57412882,12.0809684 1.60877886,12.0270684 C1.66267892,11.9962683 1.68962895,11.9558433 1.77240405,11.9269683 L1.81090409,11.9269683 C1.85902915,11.9693183 1.87442917,12.0270684 1.95527926,12.0424684 L1.99762931,11.9827933 C1.99762931,11.736393 1.94180424,11.5323428 1.91485421,11.3417676 C1.95527926,11.2705425 1.99762931,11.2147174 2.03805436,11.1165423 L2.03805433,11.1165423 C1.92485066,10.9013685 1.868526,10.6608311 1.87442914,10.4177665 C1.87442914,10.3118913 1.75892901,10.4177665 1.72042896,10.3253663 L1.63572886,10.3253663 C1.50482871,10.2560663 1.4105036,10.0982161 1.29307846,9.96539092 C1.22570339,9.95191591 1.21222837,9.90764086 1.12945327,9.88069083 L1.09672824,9.85181579 C1.02935316,9.64776556 1.09672824,9.41484028 1.02935316,9.19731503 C0.960053077,9.166515 0.946578061,9.06256487 0.877277981,9.00481481 C0.79065288,8.96246476 0.748302831,8.90663969 0.652052719,8.83733961 L0.652052704,8.83733955 C0.638567612,8.77907635 0.638567612,8.71850284 0.652052712,8.66023934 C0.707877777,8.60248927 0.790652873,8.58901426 0.892677992,8.5389642 L0.919628023,8.51201417 L0.919628023,8.33876216 C0.946578055,8.26176207 0.988928104,8.21941202 1.01587814,8.11931191 C1.01587814,8.07696186 1.00240312,7.99996177 1.00240312,7.9441367 C0.987003102,7.90178665 0.987003102,7.84403659 0.946578055,7.81516155 C0.842627934,7.7670365 0.763702842,7.81516155 0.652052712,7.75163648 C0.627027683,7.72468645 0.605852658,7.66693638 0.550027593,7.63998635 L0.525002113,7.54951124 L0.551952144,7.46673615 C0.594302194,7.4224611 0.640502247,7.39551106 0.682852297,7.32428598 L0.682852278,7.32428592 C0.645839598,7.20892144 0.650609994,7.08421047 0.696327324,6.97201051 C0.752152389,6.97201051 0.765627404,6.92966046 0.819527467,6.90078543 L0.833002483,6.85843538 C0.910002572,6.81608533 0.990852667,6.78143529 1.07362776,6.68326018 C1.1891279,6.63898513 1.28537801,6.66786016 1.41435316,6.65438514 L1.49520325,6.61011009 C1.61070339,6.61011009 1.7069535,6.66786016 1.83015364,6.65438514 C1.88982871,6.65438514 1.94565378,6.71021021 1.97260381,6.76603527 C2.04190389,6.79298531 2.10157896,6.76603527 2.18435406,6.77951029 C2.26712915,6.73716024 2.29407918,6.68326018 2.3961043,6.65438514 L2.43652935,6.56776004 C2.45000436,6.53311 2.50582943,6.53311 2.55972949,6.50423497 C2.6482796,6.50423497 2.77147974,6.51963499 2.84655483,6.43300989 C3.09873012,6.35023479 3.3374304,6.43300989 3.60500571,6.46188492 C3.71280583,6.41953487 3.84370599,6.35023479 3.97845614,6.36370981 L4.05545623,6.32135976 C4.1093563,6.20008462 4.21715642,6.06148445 4.19020639,5.88438425 L4.27298149,5.81123416 C4.32110654,5.81123416 4.32110654,5.74770909 4.3750066,5.70728404 L4.41543165,5.70728404 L4.44238168,5.68225901 C4.4558567,5.37810866 4.4558567,5.04700827 4.46933171,4.71975789 C4.5444068,4.69280786 4.48280673,4.62350778 4.53093179,4.5522827 C4.60023187,4.5522827 4.60023187,4.45988259 4.67915696,4.44448257 C4.87743219,4.47335761 5.13153248,4.36170748 5.30093268,4.53688268 L5.63588307,4.53688268 L5.67438312,4.47335761 C5.68978313,4.37710749 5.67438312,4.29048239 5.71673317,4.17113225 L5.79373326,4.11338219 L5.81875828,4.03060709 L5.81875827,4.03060711 C5.84109732,3.98755173 5.87427053,3.95106121 5.91500839,3.92473199 C5.94195842,3.86698192 5.96890845,3.78228182 6.01703351,3.70528173 C6.08633359,3.68988171 6.05745855,3.60518162 6.11328362,3.55128155 C6.1806587,3.53588153 6.19413371,3.47235646 6.2711338,3.44348143 C6.37893393,3.44348143 6.44823401,3.54935655 6.59068417,3.57823158 C6.64458424,3.5917066 6.67153427,3.6744817 6.76008437,3.68988171 L6.80050942,3.68988171 L6.95065959,3.73223176 L6.9506596,3.73223176 C7.03814373,3.73358535 7.12465874,3.71377277 7.20283489,3.6744817 C7.25095994,3.66293168 7.23748493,3.54935655 7.29138499,3.51470651 C7.27790998,3.40305638 7.26443496,3.23943119 7.34528505,3.12585606 C7.36068507,3.09698102 7.46078519,3.11238104 7.46078519,3.04308096 C7.50313524,3.02768094 7.57051032,3.04308096 7.62441038,3.02768094 C7.69371046,3.00843092 7.74183552,2.9930309 7.78418557,2.93720584 L7.79766058,2.89293079 C7.83616063,2.85250574 7.83616063,2.80823069 7.89198569,2.76588064 C8.09026092,2.71775558 8.3289612,2.61765547 8.52723643,2.70428057 C8.59461151,2.85250574 8.51183641,3.07003099 8.58113649,3.25290621 C8.63503656,3.28948125 8.68316161,3.3299063 8.72551166,3.40305638 C8.77748672,3.4165314 8.81983677,3.45695644 8.8467868,3.53588153 C8.88721185,3.56475657 8.9353369,3.5936316 9.020037,3.62058163 C9.05853705,3.63598165 9.08741208,3.5917066 9.13938714,3.60518162 C9.20291222,3.63598165 9.21638723,3.72068175 9.29723733,3.73223176 C9.31071234,3.7630318 9.31071234,3.82463187 9.35306239,3.8535069 C9.36653741,3.96515703 9.35306239,4.11338221 9.39348744,4.23850735 L9.44161249,4.26930739 C9.5359376,4.40405755 9.46663752,4.59463277 9.54941262,4.75055795 C9.51091257,4.86798308 9.49551256,5.01043325 9.38001242,5.11630837 L9.38001242,5.11630842 C9.36407222,5.23170118 9.36863394,5.34900239 9.39348746,5.46280883 L9.39348745,5.46280882 C9.49434644,5.5302594 9.61287876,5.56642177 9.73421285,5.56675894 L9.80158793,5.62450901 C9.97483813,5.66685906 10.1711884,5.68225908 10.3078635,5.79968422 L10.3964136,5.79968422 C10.5196138,5.82855925 10.5889138,5.9556094 10.731364,6.01143446 C10.731364,6.06148452 10.758314,6.1307846 10.7698641,6.18853467 C10.8545642,6.20200968 10.8545642,6.32328482 10.9431143,6.36370987 L10.9835393,6.36370987 C11.0220393,6.37910989 11.0797894,6.37910989 11.1048144,6.42145994 C11.1529395,6.49076002 11.1394645,6.62551018 11.1529395,6.72561029 L11.2357146,6.84496043 C11.2222396,6.9007855 11.2896147,6.92966053 11.2780646,7.01436063 C11.3030897,7.04323566 11.3165647,7.09136072 11.3646897,7.13371077 L11.3646897,7.21841087 C11.3646897,7.26076092 11.4205148,7.26076092 11.4339898,7.33968601 C11.4744149,7.35316102 11.5148399,7.39743607 11.58414,7.4224611 C11.6592151,7.40898609 11.6592151,7.48021117 11.7400652,7.49368619 C11.9383404,7.49368619 12.1231406,7.53603624 12.3271909,7.58608629 L12.402266,7.64383636 C12.7352913,7.62843634 13.0298167,7.69773642 13.3705421,7.69773642 C13.4263671,7.71313644 13.4398422,7.76896151 13.5206923,7.78243652 L13.6900925,7.78243652 C13.7478425,7.83248658 13.8075176,7.85943661 13.8633427,7.90371166 C13.8633427,7.94606171 13.8902927,7.97301174 13.9018427,8.03076181 C14.0115678,8.07888687 14.1135929,8.03076181 14.2367931,8.1077619 C14.2637431,8.192462 14.3657682,8.23481205 14.4215933,8.32528715 C14.5909935,8.35416219 14.7411437,8.32528715 14.9259439,8.34068717 C14.979844,8.35416219 14.993319,8.40998725 15.0837941,8.42346227 L15.0837941,8.42346226 C15.2309684,8.37966575 15.3673551,8.30557091 15.4841946,8.205937 C15.5323196,8.205937 15.5611947,8.19053699 15.6150947,8.17706197 L15.6689948,8.10583689 C15.7382949,8.09236187 15.7998949,8.07888686 15.880745,8.05771183 L15.9500451,7.98648675 C16.1617954,7.91718667 16.3870206,7.90178665 16.5852959,7.84596158 C16.693096,7.84596158 16.8355462,7.84596158 16.9587463,7.81708655 C17.1974466,7.83248657 17.3264217,7.81708655 17.4977469,7.78243651 C17.540097,7.75356148 17.551647,7.69581141 17.580522,7.62843633 L17.580522,7.62843636 C17.6437866,7.55263459 17.7147503,7.48360641 17.7922719,7.42246142 C17.832697,7.42246142 17.859647,7.42246142 17.9154721,7.4070614 C17.9616721,7.36663636 17.9616721,7.28771127 18.0040222,7.2338112 L18.0040222,7.2338112 C18.0472511,7.22122373 18.0821328,7.18918935 18.0983473,7.1471861 L18.0983473,7.10291105 L18.0309722,7.02591096 C17.9886222,6.94313586 17.9000721,6.85843576 17.857722,6.72561061 C17.873122,6.61011048 17.857722,6.50423535 17.873122,6.37911021 C17.9154721,6.36371019 17.9616721,6.36371019 17.9751472,6.2867101 C18.0174972,6.25976007 18.0579223,6.22896003 18.1387723,6.20201 C18.3909476,6.15965995 18.6315729,6.32328514 18.8972232,6.24436005 C18.9588233,6.24436005 18.9722983,6.20201 19.0261984,6.17505997 L19.0531484,6.13078492 L19.1359235,6.08843487 C19.2244736,6.01143478 19.2937737,5.95368471 19.3861738,5.84203458 C19.4631739,5.81315955 19.518999,5.81315955 19.599849,5.77850951 L19.6537491,5.72075944 C19.7288242,5.72075944 19.7981243,5.6822594 19.8654994,5.63798434 C19.8789744,5.53018422 19.9405744,5.46088414 19.9405744,5.33383399 L19.9540495,5.30688396 L19.9540495,5.30688397 C19.9799649,5.26865012 20.0190065,5.24125252 20.0637746,5.22988388 L20.1927497,5.22988388 C20.3024749,5.17213382 20.3563749,5.04508367 20.4872751,4.95268356 L20.6990253,4.95268356 L20.7952754,4.88338348 C20.9242506,4.88338348 21.0590007,4.84103343 21.2187759,4.85450845 L21.272676,4.79675838 C21.272676,4.73515831 21.2303259,4.71975829 21.2014509,4.66200822 C21.1475508,4.66200822 21.1475508,4.60810816 21.1013508,4.56575811 C21.0320507,4.55035809 20.9916257,4.473358 20.9358006,4.40213292 L20.8491755,4.36170787 L20.8068254,4.26930776 C20.7529254,4.24043273 20.6566753,4.25583275 20.5950752,4.30395781 L20.5411751,4.39058291 C20.460325,4.39058291 20.43145,4.45988299 20.3563749,4.50223304 C20.3140249,4.48683302 20.2620498,4.50223304 20.2062247,4.45988299 L20.1311497,4.40213292 L19.9675248,4.40213292 L19.8520246,4.48683302 L19.8520246,4.48683301 C19.7860302,4.51902356 19.7136973,4.53612029 19.6402744,4.53688307 L19.5574993,4.473358 L19.5305493,4.44448296 C19.5170743,4.40213292 19.4766492,4.3905829 19.4631742,4.31935782 C19.4631742,4.17113265 19.5035992,3.99403244 19.5305493,3.83810726 L19.5728993,3.79768221 C19.5863743,3.66293206 19.6402744,3.57823196 19.6749244,3.4454068 L19.7172745,3.41653177 C19.7307495,3.2740816 19.8250746,3.1816815 19.8789747,3.05655635 L19.9155497,3.02768132 C20.0772499,3.00843129 20.2351001,3.02768132 20.4179753,3.02768132 C20.4603254,3.00843129 20.5142254,3.00843129 20.5431004,2.96415624 C20.6104755,2.86405613 20.7125006,2.78128103 20.8087508,2.67540591 C20.8626508,2.56183077 20.8357008,2.45595565 20.8626508,2.3289055 C20.9242509,2.2384304 20.9512009,2.09790523 21.018576,1.97663009 L21.060926,1.94775506 C21.1013511,1.91888003 21.1013511,1.84765494 21.1013511,1.77835486 C21.1167511,1.76295484 21.1783512,1.70135477 21.2033762,1.67247974 L21.2457263,1.58777964 C21.2187762,1.50307954 21.2592013,1.42607945 21.2322512,1.32597934 L21.2033762,1.2990293 C21.1360011,1.2990293 21.0744011,1.28362929 20.991626,1.28362929 L20.8973009,1.16235415 L20.8973009,1.08150375 C20.9377259,1.0372287 20.9646759,0.975628627 21.005101,0.919803562 L21.1148261,0.904403544 C21.1629512,0.904403544 21.1918262,0.877453513 21.2303262,0.835103464 C21.2438013,0.80622843 21.2438013,0.750403365 21.2861513,0.713828323 L21.3670014,0.700353307 L21.3862514,0.658003258 L21.4151265,0.629128224 L21.4151265,0.629128213 C21.4952698,0.59989561 21.5800775,0.585543455 21.6653768,0.586778164 C21.7346769,0.586778164 21.7481519,0.515553081 21.829002,0.502078065 C21.892527,0.502078065 21.9194771,0.453953009 22.0003272,0.438552991 C22.0696273,0.438552991 22.1716524,0.453953009 22.2505775,0.41160296 C22.3333526,0.453953009 22.4103527,0.425077976 22.5046778,0.438552991 L22.5046778,0.438552997 C22.6029179,0.461061447 22.6941347,0.507330921 22.7703281,0.573303154 C22.8126781,0.573303154 22.8473282,0.54442812 22.8858282,0.502078071 C22.9551283,0.465503028 23.0090284,0.502078071 23.0975785,0.480903046 C23.1245285,0.54442812 23.2207786,0.530953105 23.2612037,0.586778169 C23.2900787,0.600253185 23.2900787,0.686878286 23.3382038,0.713828317 C23.4055788,0.777353391 23.4325289,0.86205349 23.540329,0.93135357 C23.553804,0.989103638 23.540329,1.06610373 23.6019291,1.10845378 L23.6442791,1.13732881 C23.6847042,1.16427884 23.6712291,1.27207897 23.7251292,1.31442902 L23.7251292,1.31442902 C23.8000641,1.35845353 23.8520798,1.43296224 23.8675794,1.51847926 C23.8964544,1.57622933 23.9368795,1.63205439 23.9773045,1.68787946 C24.0196546,1.68787946 24.0466046,1.71675449 24.1082047,1.72830451 C24.1216797,1.76295455 24.1216797,1.83610463 24.1755797,1.84957965 C24.1890548,1.96315478 24.2294798,2.0671049 24.2583548,2.19608005 C24.2853049,2.19608005 24.3199549,2.25190512 24.3334299,2.30003017 L24.400805,2.37125525 C24.5721302,2.42900532 24.7973555,2.40013029 24.9879307,2.41553031 C25.0610808,2.46943037 25.1323059,2.4983054 25.1996809,2.56375548 C25.253581,2.56375548 25.3421311,2.54835546 25.4114312,2.59070551 C25.4518562,2.64845558 25.5076813,2.71775566 25.5962314,2.76588071 C25.6097064,2.80823076 25.6231814,2.8371058 25.6770815,2.86598083 C25.7040315,2.90833088 25.7194315,2.95068093 25.7444566,3.02768102 L25.7579316,3.11238112 L25.8060566,3.12585613 C25.8618817,3.14125615 25.9157818,3.21055623 25.9696818,3.25290628 C26.112132,3.25290628 26.2218571,3.1836062 26.3797073,3.14125615 C26.4470824,3.08350608 26.4470824,2.99303098 26.5491075,2.96415594 C26.5491075,2.90833088 26.6184076,2.88138085 26.6049326,2.79475575 C26.6588326,2.71775566 26.7262077,2.70428064 26.8301578,2.67540561 C26.8975329,2.57723049 27.0265081,2.4983054 27.1227582,2.41553031 L27.2036083,2.41553031 L27.2806084,2.35778024 L27.3191084,2.35778024 L27.4018835,2.43093032 C27.4153585,2.47135537 27.4153585,2.5002304 27.4018835,2.56375548 L27.4018835,2.5637555 C27.3633212,2.5978503 27.3347162,2.64175569 27.3191084,2.69080565 C27.3191084,2.76780574 27.3460584,2.8255558 27.3191084,2.9083309 L27.3191084,2.90833091 C27.3795402,3.01466984 27.3852683,3.14355054 27.3345084,3.25483131 L27.2921584,3.28948135 C27.1901332,3.70720684 27.2921584,4.1865324 27.2382583,4.63698292 C27.2190083,4.67933297 27.2036082,4.76403307 27.1612582,4.81408313 C27.1227582,4.82948314 27.1073581,4.85643318 27.0804081,4.92765826 C26.9110079,4.91225824 26.7396827,4.89878323 26.5760575,4.98540833 L26.5625825,5.07588343 C26.5202325,5.1317085 26.4182073,5.14518351 26.3777823,5.22988361 C26.3777823,5.27223366 26.4182073,5.35115875 26.4182073,5.40505881 C26.4470824,5.52055895 26.5625825,5.59755904 26.5625825,5.75155922 C26.6742326,5.90170939 26.6338076,6.11923465 26.6877076,6.32520988 C26.6338076,6.38103495 26.5914575,6.46573505 26.5240825,6.53696013 C26.4894324,6.65823527 26.5240825,6.7679604 26.4490074,6.88923554 L26.4220573,6.91811057 C26.3816323,6.93351059 26.3527573,6.93351059 26.2988572,6.91811057 L26.2719072,6.83341048 L26.2719072,6.83341048 C26.234372,6.80511947 26.1897255,6.78779394 26.142932,6.78336042 C26.0736319,6.86036051 26.0466819,6.97586064 25.9716068,7.09521078 C25.8753567,7.1914609 25.7598566,7.29156101 25.6636065,7.42631117 C25.6636065,7.48406124 25.7059565,7.49753625 25.7329065,7.55336132 C25.7329065,7.63036141 25.6905565,7.64576142 25.6655315,7.71698651 L25.5827564,7.77281157 C25.3844811,7.82093663 25.1996809,7.77281157 24.9898557,7.73046152 C24.9475056,7.74393654 24.8936056,7.74393654 24.8666555,7.78628659 C24.8377805,7.83633665 24.8108305,7.8786867 24.7761804,7.96338679 L24.7761804,8.00573684 L24.7088054,8.08273693 C24.6953303,8.12508698 24.6549053,8.140487 24.6414303,8.20978708 L24.6414303,8.25213713 C24.6414303,8.34453724 24.5259301,8.37148727 24.5105301,8.47158739 L24.4835801,8.55628748 C24.3603799,8.61981256 24.400805,8.70451266 24.3603799,8.76033772 L24.36038,8.76033772 C24.2778013,8.80042228 24.2122619,8.86869249 24.1755797,8.95283794 L24.1755797,8.99518799 L24.1755797,8.99518799 C24.0182577,9.13535702 23.8124311,9.20857118 23.6019291,9.19923822 C23.540329,9.22811326 23.4864289,9.23966327 23.4325289,9.31281336 C23.4325289,9.36093841 23.4055788,9.38981345 23.3901788,9.44563851 C23.3632288,9.48798856 23.3516788,9.51686359 23.2881537,9.57268866 C23.2881537,9.62081371 23.2612037,9.64968875 23.2477287,9.70743882 L23.1649536,9.79021391 C23.1514786,9.81908894 23.1514786,9.88261402 23.1110535,9.91148905 L23.0648534,9.91148905 C23.0359784,9.94036409 23.0225034,9.98271414 22.9820784,10.0250642 C22.8723532,10.0520142 22.8126782,10.1290143 22.689478,10.1290143 C22.674078,10.0654892 22.6336529,10.0520142 22.6067029,9.96731412 L22.6067029,9.96731413 C22.6342204,9.92786602 22.6483867,9.88064481 22.647128,9.83256397 L22.702953,9.77673891 C22.8126781,9.57268867 22.676003,9.31281337 22.7568531,9.0837381 L22.8242282,9.03561304 C22.8723532,9.00673801 22.8588782,8.9104879 22.9127783,8.86621285 L22.9127783,8.86621743 C22.912363,8.79205131 22.8993448,8.71849547 22.8742798,8.64869188 C22.7972797,8.63521686 22.7838046,8.70451694 22.7010295,8.71991696 C22.6625295,8.71991696 22.6336545,8.73339198 22.5720544,8.74686699 C22.5027543,8.80461706 22.4912043,8.88161715 22.4507793,8.96439225 C22.4373042,9.0086673 22.3949542,9.02214231 22.3545291,9.08566739 C22.3545291,9.12801744 22.3198791,9.15689247 22.3064041,9.21464254 C22.225554,9.25506759 22.1427789,9.31089265 22.0138037,9.36286771 L22.0138039,9.36286752 C21.9254923,9.46920314 21.849905,9.58549132 21.7885786,9.70936793 C21.8020537,9.76326799 21.7462286,9.76326799 21.7616286,9.83449307 C21.7077285,9.88454313 21.6519035,9.92689318 21.5903034,9.99811826 C21.5364033,9.99811826 21.5094533,10.0385433 21.4266782,10.0520183 C21.3862532,10.0520183 21.3516031,10.0385433 21.2957781,10.0250683 C21.257278,10.0250683 21.199528,10.0385433 21.1745029,10.0674183 C21.0994278,10.1020684 21.1745029,10.1732935 21.1475529,10.2425935 C21.1745029,10.3272936 21.230328,10.3773437 21.2823031,10.4485688 C21.3650781,10.4755188 21.4825033,10.4485688 21.5768284,10.4620438 L21.5768284,10.4620438 C21.6994868,10.4888124 21.8070704,10.5619138 21.8771287,10.666094 L21.8771287,10.8720693 L21.8020537,10.9144193 L21.8444037,10.9991194 C21.8925288,10.9991194 21.9175538,11.0279945 21.9733789,11.0279945 C22.0542289,10.9567694 22.1562541,10.8739943 22.2120791,10.7527191 L22.2929292,10.7373191 C22.4084294,10.612194 22.5874546,10.4639688 22.7992048,10.4774438 L22.8877549,10.5890939 C22.95513,10.5890939 23.0109551,10.625669 23.0995052,10.666094 L23.1418552,10.639144 C23.2073053,10.639144 23.2496553,10.7103691 23.3536055,10.7103691 C23.3921055,10.6949691 23.4209805,10.7103691 23.4748806,10.6949691 C23.5287807,10.6949691 23.5441807,10.7373191 23.6038558,10.7661942 L23.6327308,10.8566693 L23.6327308,10.8566693 C23.5078098,11.0146205 23.3493482,11.1428365 23.1688052,11.2320447 L23.1534052,11.2743948 C23.1129802,11.3167448 23.010955,11.2897948 22.941655,11.3321448 L22.9147049,11.3667949 C22.8877549,11.4226199 22.9012299,11.5207951 22.8473298,11.5785451 L22.7992048,11.6093452 L22.7992048,11.6093451 C22.7667781,11.663031 22.7396985,11.7197696 22.7183547,11.778745 C22.6067046,11.8711451 22.4796544,11.9423702 22.4103544,12.1175454 C22.3680043,12.1598955 22.3064042,12.1752955 22.2948542,12.2599956 C22.2525042,12.2734706 22.2390292,12.3292957 22.1986041,12.3928208 C22.1986041,12.4775209 22.2794542,12.4640458 22.3064042,12.5352709 C22.3680043,12.591096 22.4796544,12.5622209 22.5585795,12.577621 C22.6201796,12.6546211 22.7029547,12.604571 22.7433797,12.6969711 L22.8242298,12.7393212 C22.8723549,12.7816712 22.8588799,12.8875463 22.8723549,12.9568464 L22.968605,13.0704215 C22.98208,13.2744718 23.0783301,13.465047 23.0513801,13.6844973 L23.0648551,13.7268473 C23.1245302,13.7980724 23.2342553,13.7980724 23.3035554,13.9193475 L23.3035554,13.9193475 C23.3589389,13.9992499 23.4023868,14.0867942 23.4325305,14.1792228 L23.5153056,14.2639229 C23.5422557,14.333223 23.6038557,14.4256231 23.6038557,14.5237982 L23.6038557,14.5237981 C23.6533072,14.5958579 23.7184691,14.6557543 23.7944309,14.6989733 L23.842556,14.7990735 C23.7944309,14.8914736 23.6847058,14.9338236 23.6038557,15.0165987 C23.5557306,15.0319987 23.5422556,15.0743488 23.4748805,15.0897488 L23.3516804,15.0897488 L23.3035553,15.1667489 L23.3362804,15.1956239 C23.4190555,15.222574 23.5287806,15.1802239 23.6308057,15.1956239 L23.6308057,15.195624 C23.7021157,15.2904583 23.7926386,15.3691738 23.8964561,15.4266242 C23.9234061,15.5960244 23.9792312,15.7577246 23.9657561,15.9502249 L23.9234061,16.07535 C23.856031,16.1831501 23.9234061,16.3371503 23.9234061,16.4719005 L23.8964561,16.5142505 C23.856031,16.5431255 23.7944309,16.5681506 23.7270559,16.5989506 C23.6712308,16.6644007 23.6577558,16.7606508 23.5749807,16.8299509 C23.5557307,16.980101 23.4748806,17.0917512 23.4209805,17.2265013 C23.4209805,17.3112014 23.3632304,17.3381515 23.3516804,17.4459516 C23.3516804,17.5017767 23.3035554,17.5306517 23.2900804,17.6134268 C23.2900804,17.6577018 23.2900804,17.7347019 23.2612053,17.790527 C23.2342553,17.805927 23.1803552,17.805927 23.1514802,17.8482771 C23.1514802,17.8752271 23.1514802,17.9522272 23.0995051,17.9657022 C23.0648551,18.0792773 23.1129801,18.1851525 23.1129801,18.3122026 C23.0783301,18.3969027 23.02443,18.4604278 22.99748,18.5740029 L22.968605,18.6028779 L22.9281799,18.616353 L22.9012299,18.643303 C22.8742799,18.693353 22.9012299,18.7203031 22.8742799,18.7780531 L22.7992048,18.8358032 C22.7299047,18.8781533 22.7299047,19.0244534 22.6625296,19.0822035 L22.5874545,19.1399536 C22.5200795,19.1669036 22.4661794,19.1399536 22.3834043,19.1534286 L22.3218042,19.2304287 C22.2948542,19.2727787 22.3218042,19.3420788 22.3218042,19.3979039 L22.2525041,19.4479539 C22.156254,19.505704 22.131229,19.6327541 22.0138039,19.7232292 C21.9733788,19.7232292 21.9464288,19.7521043 21.8925287,19.7655793 L21.8578787,19.7944543 C21.8444037,19.8522044 21.9310288,19.8233294 21.9464288,19.8945544 L21.9194788,19.9215045 L21.7885786,19.9215045 C21.7616286,20.0119796 21.6403534,20.0119796 21.5903034,20.0966797 C21.5903034,20.2179548 21.4940533,20.2891799 21.4132032,20.345005 L21.3670031,20.345005 C21.270753,20.4643551 21.1013528,20.5067052 20.9358026,20.4951551 L20.8203025,20.5914053 C20.7394524,20.6068053 20.6701523,20.5644552 20.5700522,20.6222053 L20.5277021,20.6626303 C20.417977,20.6915054 20.3294269,20.8262555 20.1927517,20.8666806 L20.1465517,20.8397305 C20.0907266,20.8551306 20.0637766,20.8974806 19.9810015,20.9109556 L19.9425015,20.8955556 C19.9271014,20.8532056 19.9425015,20.8243305 19.9271014,20.7685055 L19.8520264,20.7396304 C19.8250763,20.7550304 19.8250763,20.8108555 19.7981263,20.8551306 L19.7288262,20.9090306 L19.5998511,20.9090306 L19.599851,20.9090306 C19.5319737,20.9174028 19.471676,20.9564191 19.4362259,21.0149057 C19.4362259,21.0726558 19.3881008,21.0726558 19.3746258,21.1438809 C19.2783757,21.220881 19.1243755,21.1862309 18.9992503,21.220881 L18.9607503,21.2901811 L18.9607503,21.2901811 C18.9216761,21.3172008 18.8754279,21.3319464 18.8279251,21.3325311 C18.7470751,21.3479311 18.704725,21.4326312 18.6161749,21.4807563 L18.6161749,21.4807563 C18.536309,21.4723969 18.4556045,21.4776036 18.3774747,21.4961563 L18.3389746,21.5385064 C18.2946996,21.5539064 18.2812245,21.5962564 18.2138495,21.6078064 C18.1657244,21.6078064 18.1387744,21.6232065 18.0848743,21.6386065 L18.0405993,21.7156066 L18.0848743,21.7425566 C18.1098993,21.7849066 18.1387744,21.8291817 18.1657244,21.9119568 C18.1657244,21.9889569 18.0964243,22.046707 18.0964243,22.1314071 C18.0829493,22.1737571 17.9886242,22.1583571 17.9616742,22.2238072 L17.9616742,22.2623072 C18.1233744,22.3373823 18.2831495,22.2623072 18.4660248,22.3239073 L18.5199248,22.3932074 C18.5199248,22.4355574 18.5199248,22.5125575 18.4929748,22.5683826 L18.4044247,22.5972576 C18.3505246,22.6396076 18.3081746,22.7108327 18.2407995,22.7878328 C18.2273245,22.8879329 18.2831495,23.0342331 18.2138495,23.1343332 L18.1252994,23.1766833 L18.0848743,23.2671584 L18.0848743,23.2671584 C18.0143016,23.3201275 17.9315677,23.3545448 17.844249,23.3672585 C17.830774,23.4230836 17.7479989,23.4096085 17.7229739,23.4519586 L17.4361485,23.4519586 L17.4342219,23.4500314 Z" id="形状" fill="#7F8695"></path>
                    <g id="地图" transform="translate(14.323077, 10.500000)" fill="#B4BBCA">
                        <path d="M4.97379915e-14,3.27745188 C4.97379915e-14,1.45579373 1.44022328,-1.42108547e-14 3.23076927,-1.42108547e-14 C5.02907049,-1.42108547e-14 6.46926252,1.47136501 6.46153846,3.30080881 C6.45369123,5.09911004 5.01349921,6.55487335 3.23076927,6.56268959 C1.44022328,6.57044464 -0.0077543933,5.09129398 4.97379915e-14,3.27745188 L4.97379915e-14,3.27745188 Z M3.2385245,0.490434729 C1.73604732,0.474893854 0.474925105,1.73604649 0.467072746,3.27745188 C0.459323405,4.79550034 1.70490475,6.06443862 3.19962669,6.07997949 C4.69431823,6.09558119 5.94768521,4.84218379 5.97104215,3.3163801 C5.99439908,1.77497471 4.76438902,0.506036429 3.2385245,0.490434729 Z M1.44800892,3.27745188 C1.45579456,2.28098072 2.2498694,1.47915066 3.22298363,1.48690589 C4.19606744,1.49469153 4.98235663,2.29655201 4.98235663,3.29302317 C4.98235663,4.28167827 4.17271051,5.09911004 3.20741234,5.08353875 C2.22651247,5.06796746 1.44800892,4.2661374 1.44800892,3.27745188 L1.44800892,3.27745188 Z" id="形状"></path>
                    </g>
                </g>
            </g>
        </g>
    </g>
</svg>